<?xml version="1.0" encoding="us-ascii" standalone="no"?><svg xmlns="http://www.w3.org/2000/svg" xmlns:xlink="http://www.w3.org/1999/xlink" contentStyleType="text/css" height="1506px" preserveAspectRatio="none" style="width:1489px;height:1506px;background:#FFFFFF;" version="1.1" viewBox="0 0 1489 1506" width="1489px" zoomAndPan="magnify"><defs><filter height="1" id="bv9l4b6dw2aek0" width="1" x="0" y="0"><feFlood flood-color="#FFFF00" result="flood"/><feComposite in="SourceGraphic" in2="flood" operator="over"/></filter><filter height="1" id="bv9l4b6dw2aek1" width="1" x="0" y="0"><feFlood flood-color="#FFC0CB" result="flood"/><feComposite in="SourceGraphic" in2="flood" operator="over"/></filter><filter height="1" id="bv9l4b6dw2aek2" width="1" x="0" y="0"><feFlood flood-color="#00FFFF" result="flood"/><feComposite in="SourceGraphic" in2="flood" operator="over"/></filter></defs><g><text fill="#000000" font-family="sans-serif" font-size="14" font-weight="bold" lengthAdjust="spacing" textLength="508" x="483.5" y="25.1074">Keyple - Adapters of keyple-service-resource-java-lib - 3.0.0 (2023-06-27)</text><rect fill="#DDDDDD" height="103.1055" id="_legend" rx="7.5" ry="7.5" style="stroke:#000000;stroke-width:1.0;" width="219" x="628" y="51.6211"/><text fill="#000000" font-family="sans-serif" font-size="14" lengthAdjust="spacing" text-decoration="underline" textLength="88" x="633" y="71.7285">Colors legend</text><text fill="#000000" font-family="sans-serif" font-size="14" lengthAdjust="spacing" textLength="4" x="725" y="71.7285">:</text><ellipse cx="638.5" cy="86.3633" fill="#000000" rx="2.5" ry="2.5" style="stroke:#000000;stroke-width:0.0;"/><text fill="#000000" font-family="sans-serif" font-size="14" lengthAdjust="spacing" text-decoration="underline" textLength="189" x="645" y="90.3496">External public API references</text><text fill="#000000" font-family="sans-serif" font-size="14" lengthAdjust="spacing" textLength="4" x="838" y="90.3496">:</text><rect fill="#000000" height="3.5" style="stroke:#000000;stroke-width:0.0;" width="3.5" x="642" y="102.4844"/><text fill="#000000" filter="url(#bv9l4b6dw2aek0)" font-family="sans-serif" font-size="14" font-weight="bold" lengthAdjust="spacing" textLength="163" x="649" y="108.9707">keypop-reader-java-api</text><rect fill="#000000" height="3.5" style="stroke:#000000;stroke-width:0.0;" width="3.5" x="642" y="121.1055"/><text fill="#000000" filter="url(#bv9l4b6dw2aek1)" font-family="sans-serif" font-size="14" font-weight="bold" lengthAdjust="spacing" textLength="160" x="649" y="127.5918">keyple-service-java-lib</text><rect fill="#000000" height="3.5" style="stroke:#000000;stroke-width:0.0;" width="3.5" x="642" y="139.7266"/><text fill="#000000" filter="url(#bv9l4b6dw2aek2)" font-family="sans-serif" font-size="14" font-weight="bold" lengthAdjust="spacing" textLength="166" x="649" y="146.2129">keyple-common-java-lib</text><!--cluster resource--><g id="cluster_resource"><path d="M8.5,173.7402 L299.5,173.7402 A3.75,3.75 0 0 1 302,176.2402 L309,198.3613 L1479.5,198.3613 A2.5,2.5 0 0 1 1482,200.8613 L1482,1497.2402 A2.5,2.5 0 0 1 1479.5,1499.7402 L8.5,1499.7402 A2.5,2.5 0 0 1 6,1497.2402 L6,176.2402 A2.5,2.5 0 0 1 8.5,173.7402 " fill="#F2F3F4" style="stroke:#000000;stroke-width:1.5;"/><line style="stroke:#000000;stroke-width:1.5;" x1="6" x2="309" y1="198.3613" y2="198.3613"/><text fill="#000000" font-family="sans-serif" font-size="14" font-weight="bold" lengthAdjust="spacing" textLength="290" x="10" y="190.8477">org.eclipse.keyple.core.service.resource</text></g><!--class CardResourceServiceProvider--><g id="elem_CardResourceServiceProvider"><rect codeLine="63" fill="#E9F7EF" height="66.6211" id="CardResourceServiceProvider" rx="2.5" ry="2.5" style="stroke:#27AE60;stroke-width:2.0;" width="269" x="497.5" y="210.7402"/><ellipse cx="512.5" cy="226.7402" fill="#ADD1B2" rx="11" ry="11" style="stroke:#181818;stroke-width:1.0;"/><path d="M515.2656,222.6152 Q515.4219,222.3965 515.6094,222.2871 Q515.7969,222.1777 516.0156,222.1777 Q516.3906,222.1777 516.625,222.4434 Q516.8594,222.6934 516.8594,223.3027 L516.8594,224.7559 Q516.8594,225.3652 516.625,225.6309 Q516.3906,225.8965 516.0156,225.8965 Q515.6719,225.8965 515.4688,225.6934 Q515.2656,225.5059 515.1563,224.9902 Q515.1094,224.6309 514.9219,224.4434 Q514.5938,224.0684 513.9844,223.8496 Q513.375,223.6309 512.75,223.6309 Q511.9844,223.6309 511.3438,223.959 Q510.7188,224.2871 510.2188,225.0371 Q509.7344,225.7871 509.7344,226.8184 L509.7344,227.9121 Q509.7344,229.1465 510.625,229.9746 Q511.5156,230.7871 513.1094,230.7871 Q514.0469,230.7871 514.7031,230.5371 Q515.0938,230.3809 515.5156,229.9434 Q515.7813,229.6777 515.9219,229.5996 Q516.0781,229.5215 516.2813,229.5215 Q516.6094,229.5215 516.8594,229.7871 Q517.125,230.0371 517.125,230.3809 Q517.125,230.7246 516.7813,231.1309 Q516.2813,231.709 515.4844,232.0371 Q514.4063,232.4902 513.1094,232.4902 Q511.5938,232.4902 510.3906,231.8652 Q509.4063,231.3652 508.7188,230.3027 Q508.0313,229.2246 508.0313,227.9434 L508.0313,226.7871 Q508.0313,225.459 508.6406,224.3184 Q509.2656,223.1621 510.3594,222.5527 Q511.4531,221.9277 512.6875,221.9277 Q513.4219,221.9277 514.0625,222.0996 Q514.7188,222.2559 515.2656,222.6152 Z " fill="#000000"/><ellipse cx="531.5" cy="226.2402" fill="#84BE84" rx="3" ry="3" style="stroke:#038048;stroke-width:1.0;"/><text fill="#000000" font-family="sans-serif" font-size="14" font-weight="bold" lengthAdjust="spacing" textLength="30" x="537.5" y="232.5371">final</text><text fill="#000000" font-family="sans-serif" font-size="14" lengthAdjust="spacing" textLength="192" x="571.5" y="232.5371">CardResourceServiceProvider</text><line style="stroke:#27AE60;stroke-width:2.0;" x1="498.5" x2="765.5" y1="242.7402" y2="242.7402"/><text fill="#000000" font-family="sans-serif" font-size="14" lengthAdjust="spacing" textLength="12" x="503.5" y="261.8477">...</text><line style="stroke:#27AE60;stroke-width:2.0;" x1="498.5" x2="765.5" y1="269.3613" y2="269.3613"/></g><!--class CardResourceServiceAdapter--><g id="elem_CardResourceServiceAdapter"><rect codeLine="153" fill="#EBF5FB" height="466.2852" id="CardResourceServiceAdapter" rx="2.5" ry="2.5" style="stroke:#3498DB;stroke-width:2.0;" width="568" x="348" y="356.7402"/><ellipse cx="510.75" cy="398.9824" fill="#ADD1B2" rx="11" ry="11" style="stroke:#181818;stroke-width:1.0;"/><path d="M513.5156,394.8574 Q513.6719,394.6387 513.8594,394.5293 Q514.0469,394.4199 514.2656,394.4199 Q514.6406,394.4199 514.875,394.6855 Q515.1094,394.9355 515.1094,395.5449 L515.1094,396.998 Q515.1094,397.6074 514.875,397.873 Q514.6406,398.1387 514.2656,398.1387 Q513.9219,398.1387 513.7188,397.9355 Q513.5156,397.748 513.4063,397.2324 Q513.3594,396.873 513.1719,396.6855 Q512.8438,396.3105 512.2344,396.0918 Q511.625,395.873 511,395.873 Q510.2344,395.873 509.5938,396.2012 Q508.9688,396.5293 508.4688,397.2793 Q507.9844,398.0293 507.9844,399.0605 L507.9844,400.1543 Q507.9844,401.3887 508.875,402.2168 Q509.7656,403.0293 511.3594,403.0293 Q512.2969,403.0293 512.9531,402.7793 Q513.3438,402.623 513.7656,402.1855 Q514.0313,401.9199 514.1719,401.8418 Q514.3281,401.7637 514.5313,401.7637 Q514.8594,401.7637 515.1094,402.0293 Q515.375,402.2793 515.375,402.623 Q515.375,402.9668 515.0313,403.373 Q514.5313,403.9512 513.7344,404.2793 Q512.6563,404.7324 511.3594,404.7324 Q509.8438,404.7324 508.6406,404.1074 Q507.6563,403.6074 506.9688,402.5449 Q506.2813,401.4668 506.2813,400.1855 L506.2813,399.0293 Q506.2813,397.7012 506.8906,396.5605 Q507.5156,395.4043 508.6094,394.7949 Q509.7031,394.1699 510.9375,394.1699 Q511.6719,394.1699 512.3125,394.3418 Q512.9688,394.498 513.5156,394.8574 Z " fill="#000000"/><polygon fill="#4177AF" points="536.25,394.4824,532.25,400.4824,540.25,400.4824" style="stroke:#1963A0;stroke-width:1.0;"/><text fill="#000000" font-family="sans-serif" font-size="14" lengthAdjust="spacing" textLength="155" x="576.25" y="376.8477">&#171;CardResourceService&#187;</text><text fill="#000000" font-family="sans-serif" font-size="14" lengthAdjust="spacing" textLength="16" x="578.75" y="395.4688">&lt;&lt;</text><text fill="#000000" filter="url(#bv9l4b6dw2aek1)" font-family="sans-serif" font-size="14" lengthAdjust="spacing" textLength="118" x="594.75" y="395.4688">PluginObserverSpi</text><text fill="#000000" font-family="sans-serif" font-size="14" lengthAdjust="spacing" textLength="16" x="712.75" y="395.4688">&gt;&gt;</text><text fill="#000000" font-family="sans-serif" font-size="14" lengthAdjust="spacing" textLength="16" x="559.25" y="414.0898">&lt;&lt;</text><text fill="#000000" filter="url(#bv9l4b6dw2aek0)" font-family="sans-serif" font-size="14" lengthAdjust="spacing" textLength="157" x="575.25" y="414.0898">CardReaderObserverSpi</text><text fill="#000000" font-family="sans-serif" font-size="14" lengthAdjust="spacing" textLength="16" x="732.25" y="414.0898">&gt;&gt;</text><text fill="#000000" font-family="sans-serif" font-size="14" font-weight="bold" lengthAdjust="spacing" textLength="30" x="542.25" y="432.7109">final</text><text fill="#000000" font-family="sans-serif" font-size="14" lengthAdjust="spacing" textLength="189" x="576.25" y="432.7109">CardResourceServiceAdapter</text><line style="stroke:#3498DB;stroke-width:2.0;" x1="349" x2="915" y1="441.2246" y2="441.2246"/><line style="stroke:#3498DB;stroke-width:1.0;" x1="349" x2="915" y1="449.2246" y2="449.2246"/><polygon fill="#4177AF" points="359,460.0352,355,466.0352,363,466.0352" style="stroke:#1963A0;stroke-width:1.0;"/><text fill="#000000" font-family="sans-serif" font-size="14" lengthAdjust="spacing" text-decoration="underline" textLength="280" x="368" y="468.332">CardResourceServiceAdapter getInstance ()</text><polygon fill="#4177AF" points="359,478.6563,355,484.6563,363,484.6563" style="stroke:#1963A0;stroke-width:1.0;"/><text fill="#000000" font-family="sans-serif" font-size="14" lengthAdjust="spacing" text-decoration="underline" textLength="375" x="368" y="486.9531">String getCardResourceInfo (CardResource cardResource)</text><text fill="#000000" font-family="sans-serif" font-size="14" lengthAdjust="spacing" textLength="4" x="368" y="505.5742">&#160;</text><polygon fill="#4177AF" points="359,515.8984,355,521.8984,363,521.8984" style="stroke:#1963A0;stroke-width:1.0;"/><text fill="#000000" font-family="sans-serif" font-size="14" lengthAdjust="spacing" textLength="289" x="368" y="524.1953">ReaderManagerAdapter getReaderManager (</text><text fill="#000000" filter="url(#bv9l4b6dw2aek0)" font-family="sans-serif" font-size="14" lengthAdjust="spacing" textLength="78" x="657" y="524.1953">CardReader</text><text fill="#000000" font-family="sans-serif" font-size="14" lengthAdjust="spacing" textLength="47" x="739" y="524.1953">reader)</text><polygon fill="#4177AF" points="359,534.5195,355,540.5195,363,540.5195" style="stroke:#1963A0;stroke-width:1.0;"/><text fill="#000000" font-family="sans-serif" font-size="14" lengthAdjust="spacing" textLength="396" x="368" y="542.8164">void registerPoolCardResource (CardResource cardResource,</text><text fill="#000000" filter="url(#bv9l4b6dw2aek1)" font-family="sans-serif" font-size="14" lengthAdjust="spacing" textLength="67" x="768" y="542.8164">PoolPlugin</text><text fill="#000000" font-family="sans-serif" font-size="14" lengthAdjust="spacing" textLength="71" x="839" y="542.8164">poolPlugin)</text><polygon fill="#4177AF" points="359,553.1406,355,559.1406,363,559.1406" style="stroke:#1963A0;stroke-width:1.0;"/><text fill="#000000" font-family="sans-serif" font-size="14" lengthAdjust="spacing" textLength="451" x="368" y="561.4375">void configure (CardResourceServiceConfiguratorAdapter configurator)</text><ellipse cx="359" cy="598.3828" fill="#84BE84" rx="3" ry="3" style="stroke:#038048;stroke-width:1.0;"/><text fill="#000000" font-family="sans-serif" font-size="14" lengthAdjust="spacing" textLength="331" x="368" y="602.6797">CardResourceServiceConfigurator getConfigurator()</text><ellipse cx="359" cy="617.0039" fill="#84BE84" rx="3" ry="3" style="stroke:#038048;stroke-width:1.0;"/><text fill="#000000" font-family="sans-serif" font-size="14" lengthAdjust="spacing" textLength="425" x="368" y="621.3008">MinimalCardResourceServiceConfigurator getMinimalConfigurator()</text><ellipse cx="359" cy="635.625" fill="#84BE84" rx="3" ry="3" style="stroke:#038048;stroke-width:1.0;"/><text fill="#000000" font-family="sans-serif" font-size="14" lengthAdjust="spacing" textLength="72" x="368" y="639.9219">void start ()</text><ellipse cx="359" cy="654.2461" fill="#84BE84" rx="3" ry="3" style="stroke:#038048;stroke-width:1.0;"/><text fill="#000000" font-family="sans-serif" font-size="14" lengthAdjust="spacing" textLength="71" x="368" y="658.543">void stop ()</text><ellipse cx="359" cy="672.8672" fill="#84BE84" rx="3" ry="3" style="stroke:#038048;stroke-width:1.0;"/><text fill="#000000" font-family="sans-serif" font-size="14" lengthAdjust="spacing" textLength="428" x="368" y="677.1641">CardResource getCardResource (String cardResourceProfileName)</text><ellipse cx="359" cy="691.4883" fill="#84BE84" rx="3" ry="3" style="stroke:#038048;stroke-width:1.0;"/><text fill="#000000" font-family="sans-serif" font-size="14" lengthAdjust="spacing" textLength="222" x="368" y="695.7852">CardResource getCardResource ()</text><ellipse cx="359" cy="710.1094" fill="#84BE84" rx="3" ry="3" style="stroke:#038048;stroke-width:1.0;"/><text fill="#000000" font-family="sans-serif" font-size="14" lengthAdjust="spacing" textLength="368" x="368" y="714.4063">void releaseCardResource (CardResource cardResource)</text><ellipse cx="359" cy="728.7305" fill="#84BE84" rx="3" ry="3" style="stroke:#038048;stroke-width:1.0;"/><text fill="#000000" font-family="sans-serif" font-size="14" lengthAdjust="spacing" textLength="368" x="368" y="733.0273">void removeCardResource (CardResource cardResource)</text><line style="stroke:#3498DB;stroke-width:1.0;" x1="349" x2="554.5" y1="578.2617" y2="578.2617"/><text fill="#000000" font-family="sans-serif" font-size="14" font-weight="bold" lengthAdjust="spacing" textLength="155" x="554.5" y="583.5586">CardResourceService</text><line style="stroke:#3498DB;stroke-width:1.0;" x1="709.5" x2="915" y1="578.2617" y2="578.2617"/><ellipse cx="359" cy="769.9727" fill="#84BE84" rx="3" ry="3" style="stroke:#038048;stroke-width:1.0;"/><text fill="#000000" font-family="sans-serif" font-size="14" lengthAdjust="spacing" textLength="130" x="368" y="774.2695">void onPluginEvent (</text><text fill="#000000" filter="url(#bv9l4b6dw2aek1)" font-family="sans-serif" font-size="14" lengthAdjust="spacing" textLength="75" x="498" y="774.2695">PluginEvent</text><text fill="#000000" font-family="sans-serif" font-size="14" lengthAdjust="spacing" textLength="79" x="577" y="774.2695">pluginEvent)</text><line style="stroke:#3498DB;stroke-width:1.0;" x1="349" x2="565.5" y1="749.8516" y2="749.8516"/><text fill="#000000" font-family="sans-serif" font-size="14" font-weight="bold" lengthAdjust="spacing" textLength="133" x="565.5" y="755.1484">PluginObserverSpi</text><line style="stroke:#3498DB;stroke-width:1.0;" x1="698.5" x2="915" y1="749.8516" y2="749.8516"/><ellipse cx="359" cy="811.2148" fill="#84BE84" rx="3" ry="3" style="stroke:#038048;stroke-width:1.0;"/><text fill="#000000" font-family="sans-serif" font-size="14" lengthAdjust="spacing" textLength="138" x="368" y="815.5117">void onReaderEvent (</text><text fill="#000000" filter="url(#bv9l4b6dw2aek0)" font-family="sans-serif" font-size="14" lengthAdjust="spacing" textLength="114" x="506" y="815.5117">CardReaderEvent</text><text fill="#000000" font-family="sans-serif" font-size="14" lengthAdjust="spacing" textLength="83" x="624" y="815.5117">readerEvent)</text><line style="stroke:#3498DB;stroke-width:1.0;" x1="349" x2="545.5" y1="791.0938" y2="791.0938"/><text fill="#000000" font-family="sans-serif" font-size="14" font-weight="bold" lengthAdjust="spacing" textLength="173" x="545.5" y="796.3906">CardReaderObserverSpi</text><line style="stroke:#3498DB;stroke-width:1.0;" x1="718.5" x2="915" y1="791.0938" y2="791.0938"/></g><!--class CardResourceAdapter--><g id="elem_CardResourceAdapter"><rect codeLine="154" fill="#EBF5FB" height="152.3477" id="CardResourceAdapter" rx="2.5" ry="2.5" style="stroke:#3498DB;stroke-width:2.0;" width="668" x="604" y="1331.7402"/><ellipse cx="840.25" cy="1355.3613" fill="#ADD1B2" rx="11" ry="11" style="stroke:#181818;stroke-width:1.0;"/><path d="M843.0156,1351.2363 Q843.1719,1351.0176 843.3594,1350.9082 Q843.5469,1350.7988 843.7656,1350.7988 Q844.1406,1350.7988 844.375,1351.0645 Q844.6094,1351.3145 844.6094,1351.9238 L844.6094,1353.377 Q844.6094,1353.9863 844.375,1354.252 Q844.1406,1354.5176 843.7656,1354.5176 Q843.4219,1354.5176 843.2188,1354.3145 Q843.0156,1354.127 842.9063,1353.6113 Q842.8594,1353.252 842.6719,1353.0645 Q842.3438,1352.6895 841.7344,1352.4707 Q841.125,1352.252 840.5,1352.252 Q839.7344,1352.252 839.0938,1352.5801 Q838.4688,1352.9082 837.9688,1353.6582 Q837.4844,1354.4082 837.4844,1355.4395 L837.4844,1356.5332 Q837.4844,1357.7676 838.375,1358.5957 Q839.2656,1359.4082 840.8594,1359.4082 Q841.7969,1359.4082 842.4531,1359.1582 Q842.8438,1359.002 843.2656,1358.5645 Q843.5313,1358.2988 843.6719,1358.2207 Q843.8281,1358.1426 844.0313,1358.1426 Q844.3594,1358.1426 844.6094,1358.4082 Q844.875,1358.6582 844.875,1359.002 Q844.875,1359.3457 844.5313,1359.752 Q844.0313,1360.3301 843.2344,1360.6582 Q842.1563,1361.1113 840.8594,1361.1113 Q839.3438,1361.1113 838.1406,1360.4863 Q837.1563,1359.9863 836.4688,1358.9238 Q835.7813,1357.8457 835.7813,1356.5645 L835.7813,1355.4082 Q835.7813,1354.0801 836.3906,1352.9395 Q837.0156,1351.7832 838.1094,1351.1738 Q839.2031,1350.5488 840.4375,1350.5488 Q841.1719,1350.5488 841.8125,1350.7207 Q842.4688,1350.877 843.0156,1351.2363 Z " fill="#000000"/><polygon fill="#4177AF" points="865.75,1350.8613,861.75,1356.8613,869.75,1356.8613" style="stroke:#1963A0;stroke-width:1.0;"/><text fill="#000000" font-family="sans-serif" font-size="14" lengthAdjust="spacing" textLength="108" x="905.75" y="1351.8477">&#171;CardResource&#187;</text><text fill="#000000" font-family="sans-serif" font-size="14" font-weight="bold" lengthAdjust="spacing" textLength="30" x="871.75" y="1370.4688">final</text><text fill="#000000" font-family="sans-serif" font-size="14" lengthAdjust="spacing" textLength="142" x="905.75" y="1370.4688">CardResourceAdapter</text><line style="stroke:#3498DB;stroke-width:2.0;" x1="605" x2="1271" y1="1378.9824" y2="1378.9824"/><polygon fill="#4177AF" points="615,1389.793,611,1395.793,619,1395.793" style="stroke:#1963A0;stroke-width:1.0;"/><text fill="#000000" font-family="sans-serif" font-size="14" lengthAdjust="spacing" textLength="101" x="624" y="1398.0898">CardResource (</text><text fill="#000000" filter="url(#bv9l4b6dw2aek0)" font-family="sans-serif" font-size="14" lengthAdjust="spacing" textLength="78" x="725" y="1398.0898">CardReader</text><text fill="#000000" font-family="sans-serif" font-size="14" lengthAdjust="spacing" textLength="46" x="807" y="1398.0898">reader,</text><text fill="#000000" filter="url(#bv9l4b6dw2aek2)" font-family="sans-serif" font-size="14" lengthAdjust="spacing" textLength="151" x="857" y="1398.0898">KeypleReaderExtension</text><text fill="#000000" font-family="sans-serif" font-size="14" lengthAdjust="spacing" textLength="107" x="1012" y="1398.0898">readerExtension,</text><text fill="#000000" filter="url(#bv9l4b6dw2aek0)" font-family="sans-serif" font-size="14" lengthAdjust="spacing" textLength="68" x="1123" y="1398.0898">SmartCard</text><text fill="#000000" font-family="sans-serif" font-size="14" lengthAdjust="spacing" textLength="71" x="1195" y="1398.0898">smartCard)</text><ellipse cx="615" cy="1435.0352" fill="#84BE84" rx="3" ry="3" style="stroke:#038048;stroke-width:1.0;"/><text fill="#000000" filter="url(#bv9l4b6dw2aek0)" font-family="sans-serif" font-size="14" lengthAdjust="spacing" textLength="78" x="624" y="1439.332">CardReader</text><text fill="#000000" font-family="sans-serif" font-size="14" lengthAdjust="spacing" textLength="81" x="706" y="1439.332">getReader ()</text><ellipse cx="615" cy="1453.6563" fill="#84BE84" rx="3" ry="3" style="stroke:#038048;stroke-width:1.0;"/><text fill="#000000" filter="url(#bv9l4b6dw2aek2)" font-family="sans-serif" font-size="14" lengthAdjust="spacing" textLength="151" x="624" y="1457.9531">KeypleReaderExtension</text><text fill="#000000" font-family="sans-serif" font-size="14" lengthAdjust="spacing" textLength="142" x="779" y="1457.9531">getReaderExtension ()</text><ellipse cx="615" cy="1472.2773" fill="#84BE84" rx="3" ry="3" style="stroke:#038048;stroke-width:1.0;"/><text fill="#000000" filter="url(#bv9l4b6dw2aek0)" font-family="sans-serif" font-size="14" lengthAdjust="spacing" textLength="68" x="624" y="1476.5742">SmartCard</text><text fill="#000000" font-family="sans-serif" font-size="14" lengthAdjust="spacing" textLength="102" x="696" y="1476.5742">getSmartCard ()</text><line style="stroke:#3498DB;stroke-width:1.0;" x1="605" x2="887.5" y1="1414.9141" y2="1414.9141"/><text fill="#000000" font-family="sans-serif" font-size="14" font-weight="bold" lengthAdjust="spacing" textLength="101" x="887.5" y="1420.2109">CardResource</text><line style="stroke:#3498DB;stroke-width:1.0;" x1="988.5" x2="1271" y1="1414.9141" y2="1414.9141"/></g><!--class ReaderManagerAdapter--><g id="elem_ReaderManagerAdapter"><rect codeLine="156" fill="#EBF5FB" height="290.0742" id="ReaderManagerAdapter" rx="2.5" ry="2.5" style="stroke:#3498DB;stroke-width:2.0;" width="570" x="896" y="923.2402"/><ellipse cx="1077.75" cy="939.2402" fill="#ADD1B2" rx="11" ry="11" style="stroke:#181818;stroke-width:1.0;"/><path d="M1080.5156,935.1152 Q1080.6719,934.8965 1080.8594,934.7871 Q1081.0469,934.6777 1081.2656,934.6777 Q1081.6406,934.6777 1081.875,934.9434 Q1082.1094,935.1934 1082.1094,935.8027 L1082.1094,937.2559 Q1082.1094,937.8652 1081.875,938.1309 Q1081.6406,938.3965 1081.2656,938.3965 Q1080.9219,938.3965 1080.7188,938.1934 Q1080.5156,938.0059 1080.4063,937.4902 Q1080.3594,937.1309 1080.1719,936.9434 Q1079.8438,936.5684 1079.2344,936.3496 Q1078.625,936.1309 1078,936.1309 Q1077.2344,936.1309 1076.5938,936.459 Q1075.9688,936.7871 1075.4688,937.5371 Q1074.9844,938.2871 1074.9844,939.3184 L1074.9844,940.4121 Q1074.9844,941.6465 1075.875,942.4746 Q1076.7656,943.2871 1078.3594,943.2871 Q1079.2969,943.2871 1079.9531,943.0371 Q1080.3438,942.8809 1080.7656,942.4434 Q1081.0313,942.1777 1081.1719,942.0996 Q1081.3281,942.0215 1081.5313,942.0215 Q1081.8594,942.0215 1082.1094,942.2871 Q1082.375,942.5371 1082.375,942.8809 Q1082.375,943.2246 1082.0313,943.6309 Q1081.5313,944.209 1080.7344,944.5371 Q1079.6563,944.9902 1078.3594,944.9902 Q1076.8438,944.9902 1075.6406,944.3652 Q1074.6563,943.8652 1073.9688,942.8027 Q1073.2813,941.7246 1073.2813,940.4434 L1073.2813,939.2871 Q1073.2813,937.959 1073.8906,936.8184 Q1074.5156,935.6621 1075.6094,935.0527 Q1076.7031,934.4277 1077.9375,934.4277 Q1078.6719,934.4277 1079.3125,934.5996 Q1079.9688,934.7559 1080.5156,935.1152 Z " fill="#000000"/><polygon fill="#4177AF" points="1103.25,934.7402,1099.25,940.7402,1107.25,940.7402" style="stroke:#1963A0;stroke-width:1.0;"/><text fill="#000000" font-family="sans-serif" font-size="14" font-weight="bold" lengthAdjust="spacing" textLength="30" x="1109.25" y="945.0371">final</text><text fill="#000000" font-family="sans-serif" font-size="14" lengthAdjust="spacing" textLength="153" x="1143.25" y="945.0371">ReaderManagerAdapter</text><line style="stroke:#3498DB;stroke-width:2.0;" x1="897" x2="1465" y1="955.2402" y2="955.2402"/><line style="stroke:#3498DB;stroke-width:1.0;" x1="897" x2="1465" y1="963.2402" y2="963.2402"/><polygon fill="#4177AF" points="907,974.0508,903,980.0508,911,980.0508" style="stroke:#1963A0;stroke-width:1.0;"/><text fill="#000000" font-family="sans-serif" font-size="14" lengthAdjust="spacing" textLength="162" x="916" y="982.3477">ReaderManagerAdapter (</text><text fill="#000000" filter="url(#bv9l4b6dw2aek0)" font-family="sans-serif" font-size="14" lengthAdjust="spacing" textLength="78" x="1078" y="982.3477">CardReader</text><text fill="#000000" font-family="sans-serif" font-size="14" lengthAdjust="spacing" textLength="46" x="1160" y="982.3477">reader,</text><text fill="#000000" filter="url(#bv9l4b6dw2aek1)" font-family="sans-serif" font-size="14" lengthAdjust="spacing" textLength="39" x="1210" y="982.3477">Plugin</text><text fill="#000000" font-family="sans-serif" font-size="14" lengthAdjust="spacing" textLength="42" x="1253" y="982.3477">plugin,</text><text fill="#000000" font-family="sans-serif" font-size="14" lengthAdjust="spacing" textLength="443" x="948" y="1000.9688">ReaderConfiguratorSpi readerConfiguratorSpi, int usageTimeoutMillis)</text><text fill="#000000" font-family="sans-serif" font-size="14" lengthAdjust="spacing" textLength="4" x="916" y="1019.5898">&#160;</text><polygon fill="#4177AF" points="907,1029.9141,903,1035.9141,911,1035.9141" style="stroke:#1963A0;stroke-width:1.0;"/><text fill="#000000" filter="url(#bv9l4b6dw2aek0)" font-family="sans-serif" font-size="14" lengthAdjust="spacing" textLength="78" x="916" y="1038.2109">CardReader</text><text fill="#000000" font-family="sans-serif" font-size="14" lengthAdjust="spacing" textLength="81" x="998" y="1038.2109">getReader ()</text><polygon fill="#4177AF" points="907,1048.5352,903,1054.5352,911,1054.5352" style="stroke:#1963A0;stroke-width:1.0;"/><text fill="#000000" filter="url(#bv9l4b6dw2aek1)" font-family="sans-serif" font-size="14" lengthAdjust="spacing" textLength="39" x="916" y="1056.832">Plugin</text><text fill="#000000" font-family="sans-serif" font-size="14" lengthAdjust="spacing" textLength="73" x="959" y="1056.832">getPlugin ()</text><polygon fill="#4177AF" points="907,1067.1563,903,1073.1563,911,1073.1563" style="stroke:#1963A0;stroke-width:1.0;"/><text fill="#000000" font-family="sans-serif" font-size="14" lengthAdjust="spacing" textLength="266" x="916" y="1075.4531">Set&lt;CardResource&gt; getCardResources ()</text><polygon fill="#4177AF" points="907,1085.7773,903,1091.7773,911,1091.7773" style="stroke:#1963A0;stroke-width:1.0;"/><text fill="#000000" font-family="sans-serif" font-size="14" lengthAdjust="spacing" textLength="117" x="916" y="1094.0742">boolean isActive ()</text><text fill="#000000" font-family="sans-serif" font-size="14" lengthAdjust="spacing" textLength="4" x="916" y="1112.6953">&#160;</text><polygon fill="#4177AF" points="907,1123.0195,903,1129.0195,911,1129.0195" style="stroke:#1963A0;stroke-width:1.0;"/><text fill="#000000" font-family="sans-serif" font-size="14" lengthAdjust="spacing" textLength="93" x="916" y="1131.3164">void activate ()</text><polygon fill="#4177AF" points="907,1141.6406,903,1147.6406,911,1147.6406" style="stroke:#1963A0;stroke-width:1.0;"/><text fill="#000000" font-family="sans-serif" font-size="14" lengthAdjust="spacing" textLength="420" x="916" y="1149.9375">CardResource matches (CardResourceProfileExtension extension)</text><polygon fill="#4177AF" points="907,1160.2617,903,1166.2617,911,1166.2617" style="stroke:#1963A0;stroke-width:1.0;"/><text fill="#000000" font-family="sans-serif" font-size="14" lengthAdjust="spacing" textLength="544" x="916" y="1168.5586">boolean lock (CardResource cardResource, CardResourceProfileExtension extension)</text><polygon fill="#4177AF" points="907,1178.8828,903,1184.8828,911,1184.8828" style="stroke:#1963A0;stroke-width:1.0;"/><text fill="#000000" font-family="sans-serif" font-size="14" lengthAdjust="spacing" textLength="85" x="916" y="1187.1797">void unlock ()</text><polygon fill="#4177AF" points="907,1197.5039,903,1203.5039,911,1203.5039" style="stroke:#1963A0;stroke-width:1.0;"/><text fill="#000000" font-family="sans-serif" font-size="14" lengthAdjust="spacing" textLength="368" x="916" y="1205.8008">void removeCardResource (CardResource cardResource)</text></g><!--class CardProfileManagerAdapter--><g id="elem_CardProfileManagerAdapter"><rect codeLine="157" fill="#EBF5FB" height="178.3477" id="CardProfileManagerAdapter" rx="2.5" ry="2.5" style="stroke:#3498DB;stroke-width:2.0;" width="458" x="403" y="979.2402"/><ellipse cx="516.75" cy="995.2402" fill="#ADD1B2" rx="11" ry="11" style="stroke:#181818;stroke-width:1.0;"/><path d="M519.5156,991.1152 Q519.6719,990.8965 519.8594,990.7871 Q520.0469,990.6777 520.2656,990.6777 Q520.6406,990.6777 520.875,990.9434 Q521.1094,991.1934 521.1094,991.8027 L521.1094,993.2559 Q521.1094,993.8652 520.875,994.1309 Q520.6406,994.3965 520.2656,994.3965 Q519.9219,994.3965 519.7188,994.1934 Q519.5156,994.0059 519.4063,993.4902 Q519.3594,993.1309 519.1719,992.9434 Q518.8438,992.5684 518.2344,992.3496 Q517.625,992.1309 517,992.1309 Q516.2344,992.1309 515.5938,992.459 Q514.9688,992.7871 514.4688,993.5371 Q513.9844,994.2871 513.9844,995.3184 L513.9844,996.4121 Q513.9844,997.6465 514.875,998.4746 Q515.7656,999.2871 517.3594,999.2871 Q518.2969,999.2871 518.9531,999.0371 Q519.3438,998.8809 519.7656,998.4434 Q520.0313,998.1777 520.1719,998.0996 Q520.3281,998.0215 520.5313,998.0215 Q520.8594,998.0215 521.1094,998.2871 Q521.375,998.5371 521.375,998.8809 Q521.375,999.2246 521.0313,999.6309 Q520.5313,1000.209 519.7344,1000.5371 Q518.6563,1000.9902 517.3594,1000.9902 Q515.8438,1000.9902 514.6406,1000.3652 Q513.6563,999.8652 512.9688,998.8027 Q512.2813,997.7246 512.2813,996.4434 L512.2813,995.2871 Q512.2813,993.959 512.8906,992.8184 Q513.5156,991.6621 514.6094,991.0527 Q515.7031,990.4277 516.9375,990.4277 Q517.6719,990.4277 518.3125,990.5996 Q518.9688,990.7559 519.5156,991.1152 Z " fill="#000000"/><polygon fill="#4177AF" points="542.25,990.7402,538.25,996.7402,546.25,996.7402" style="stroke:#1963A0;stroke-width:1.0;"/><text fill="#000000" font-family="sans-serif" font-size="14" font-weight="bold" lengthAdjust="spacing" textLength="30" x="548.25" y="1001.0371">final</text><text fill="#000000" font-family="sans-serif" font-size="14" lengthAdjust="spacing" textLength="177" x="582.25" y="1001.0371">CardProfileManagerAdapter</text><line style="stroke:#3498DB;stroke-width:2.0;" x1="404" x2="860" y1="1011.2402" y2="1011.2402"/><line style="stroke:#3498DB;stroke-width:1.0;" x1="404" x2="860" y1="1019.2402" y2="1019.2402"/><polygon fill="#4177AF" points="414,1030.0508,410,1036.0508,418,1036.0508" style="stroke:#1963A0;stroke-width:1.0;"/><text fill="#000000" font-family="sans-serif" font-size="14" lengthAdjust="spacing" textLength="329" x="423" y="1038.3477">CardProfileManagerAdapter(CardProfile cardProfile,</text><text fill="#000000" font-family="sans-serif" font-size="14" lengthAdjust="spacing" textLength="400" x="455" y="1056.9688">CardResourceServiceConfiguratorAdapter globalConfiguration)</text><text fill="#000000" font-family="sans-serif" font-size="14" lengthAdjust="spacing" textLength="4" x="423" y="1075.5898">&#160;</text><polygon fill="#4177AF" points="414,1085.9141,410,1091.9141,418,1091.9141" style="stroke:#1963A0;stroke-width:1.0;"/><text fill="#000000" font-family="sans-serif" font-size="14" lengthAdjust="spacing" textLength="368" x="423" y="1094.2109">void removeCardResource (CardResource cardResource)</text><polygon fill="#4177AF" points="414,1104.5352,410,1110.5352,418,1110.5352" style="stroke:#1963A0;stroke-width:1.0;"/><text fill="#000000" font-family="sans-serif" font-size="14" lengthAdjust="spacing" textLength="431" x="423" y="1112.832">void onReaderConnected (ReaderManagerAdapter readerManager)</text><polygon fill="#4177AF" points="414,1123.1563,410,1129.1563,418,1129.1563" style="stroke:#1963A0;stroke-width:1.0;"/><text fill="#000000" font-family="sans-serif" font-size="14" lengthAdjust="spacing" textLength="397" x="423" y="1131.4531">void onCardInserted (ReaderManagerAdapter readerManager)</text><polygon fill="#4177AF" points="414,1141.7773,410,1147.7773,418,1147.7773" style="stroke:#1963A0;stroke-width:1.0;"/><text fill="#000000" font-family="sans-serif" font-size="14" lengthAdjust="spacing" textLength="222" x="423" y="1150.0742">CardResource getCardResource ()</text></g><!--class CardResourceServiceConfiguratorAdapter--><g id="elem_CardResourceServiceConfiguratorAdapter"><rect codeLine="155" fill="#EBF5FB" height="369.1797" id="CardResourceServiceConfiguratorAdapter" rx="2.5" ry="2.5" style="stroke:#3498DB;stroke-width:2.0;" width="345" x="22.5" y="883.7402"/><ellipse cx="37.5" cy="1009.7773" fill="#ADD1B2" rx="11" ry="11" style="stroke:#181818;stroke-width:1.0;"/><path d="M40.2656,1005.6523 Q40.4219,1005.4336 40.6094,1005.3242 Q40.7969,1005.2148 41.0156,1005.2148 Q41.3906,1005.2148 41.625,1005.4805 Q41.8594,1005.7305 41.8594,1006.3398 L41.8594,1007.793 Q41.8594,1008.4023 41.625,1008.668 Q41.3906,1008.9336 41.0156,1008.9336 Q40.6719,1008.9336 40.4688,1008.7305 Q40.2656,1008.543 40.1563,1008.0273 Q40.1094,1007.668 39.9219,1007.4805 Q39.5938,1007.1055 38.9844,1006.8867 Q38.375,1006.668 37.75,1006.668 Q36.9844,1006.668 36.3438,1006.9961 Q35.7188,1007.3242 35.2188,1008.0742 Q34.7344,1008.8242 34.7344,1009.8555 L34.7344,1010.9492 Q34.7344,1012.1836 35.625,1013.0117 Q36.5156,1013.8242 38.1094,1013.8242 Q39.0469,1013.8242 39.7031,1013.5742 Q40.0938,1013.418 40.5156,1012.9805 Q40.7813,1012.7148 40.9219,1012.6367 Q41.0781,1012.5586 41.2813,1012.5586 Q41.6094,1012.5586 41.8594,1012.8242 Q42.125,1013.0742 42.125,1013.418 Q42.125,1013.7617 41.7813,1014.168 Q41.2813,1014.7461 40.4844,1015.0742 Q39.4063,1015.5273 38.1094,1015.5273 Q36.5938,1015.5273 35.3906,1014.9023 Q34.4063,1014.4023 33.7188,1013.3398 Q33.0313,1012.2617 33.0313,1010.9805 L33.0313,1009.8242 Q33.0313,1008.4961 33.6406,1007.3555 Q34.2656,1006.1992 35.3594,1005.5898 Q36.4531,1004.9648 37.6875,1004.9648 Q38.4219,1004.9648 39.0625,1005.1367 Q39.7188,1005.293 40.2656,1005.6523 Z " fill="#000000"/><polygon fill="#4177AF" points="56.5,1005.2773,52.5,1011.2773,60.5,1011.2773" style="stroke:#1963A0;stroke-width:1.0;"/><text fill="#000000" font-family="sans-serif" font-size="14" lengthAdjust="spacing" textLength="234" x="96.5" y="903.8477">&#171;CardResourceServiceConfigurator&#187;</text><text fill="#000000" font-family="sans-serif" font-size="14" lengthAdjust="spacing" textLength="281" x="73" y="922.4688">&#171;MinimalCardResourceServiceConfigurator&#187;</text><text fill="#000000" font-family="sans-serif" font-size="14" lengthAdjust="spacing" textLength="159" x="134" y="941.0898">&#171;AllocationStrategyStep&#187;</text><text fill="#000000" font-family="sans-serif" font-size="14" lengthAdjust="spacing" textLength="136" x="145.5" y="959.7109">&#171;UsageTimeoutStep&#187;</text><text fill="#000000" font-family="sans-serif" font-size="14" lengthAdjust="spacing" textLength="84" x="171.5" y="978.332">&#171;PluginStep&#187;</text><text fill="#000000" font-family="sans-serif" font-size="14" lengthAdjust="spacing" textLength="150" x="138.5" y="996.9531">&#171;PluginMonitoringStep&#187;</text><text fill="#000000" font-family="sans-serif" font-size="14" lengthAdjust="spacing" textLength="187" x="120" y="1015.5742">&#171;PoolAllocationStrategyStep&#187;</text><text fill="#000000" font-family="sans-serif" font-size="14" lengthAdjust="spacing" textLength="112" x="157.5" y="1034.1953">&#171;PoolPluginStep&#187;</text><text fill="#000000" font-family="sans-serif" font-size="14" lengthAdjust="spacing" textLength="214" x="106.5" y="1052.8164">&#171;AllocationTimingParameterStep&#187;</text><text fill="#000000" font-family="sans-serif" font-size="14" lengthAdjust="spacing" textLength="85" x="171" y="1071.4375">&#171;ProfileStep&#187;</text><text fill="#000000" font-family="sans-serif" font-size="14" lengthAdjust="spacing" textLength="151" x="138" y="1090.0586">&#171;ProfileParameterStep&#187;</text><text fill="#000000" font-family="sans-serif" font-size="14" lengthAdjust="spacing" textLength="130" x="148.5" y="1108.6797">&#171;ConfigurationStep&#187;</text><text fill="#000000" font-family="sans-serif" font-size="14" font-weight="bold" lengthAdjust="spacing" textLength="30" x="62.5" y="1127.3008">final</text><text fill="#000000" font-family="sans-serif" font-size="14" lengthAdjust="spacing" textLength="268" x="96.5" y="1127.3008">CardResourceServiceConfiguratorAdapter</text><line style="stroke:#3498DB;stroke-width:2.0;" x1="23.5" x2="366.5" y1="1135.8145" y2="1135.8145"/><line style="stroke:#3498DB;stroke-width:1.0;" x1="23.5" x2="366.5" y1="1143.8145" y2="1143.8145"/><polygon fill="#4177AF" points="33.5,1154.625,29.5,1160.625,37.5,1160.625" style="stroke:#1963A0;stroke-width:1.0;"/><text fill="#000000" font-family="sans-serif" font-size="14" lengthAdjust="spacing" textLength="282" x="42.5" y="1162.9219">CardResourceServiceConfiguratorAdapter ()</text><text fill="#000000" font-family="sans-serif" font-size="14" lengthAdjust="spacing" textLength="12" x="28.5" y="1204.1641">...</text><line style="stroke:#3498DB;stroke-width:1.0;" x1="23.5" x2="73" y1="1179.7461" y2="1179.7461"/><text fill="#000000" font-family="sans-serif" font-size="14" font-weight="bold" lengthAdjust="spacing" textLength="244" x="73" y="1185.043">CardResourceServiceConfigurator</text><line style="stroke:#3498DB;stroke-width:1.0;" x1="317" x2="366.5" y1="1179.7461" y2="1179.7461"/><text fill="#000000" font-family="sans-serif" font-size="14" lengthAdjust="spacing" textLength="12" x="28.5" y="1245.4063">...</text><line style="stroke:#3498DB;stroke-width:1.0;" x1="23.5" x2="46" y1="1220.9883" y2="1220.9883"/><text fill="#000000" font-family="sans-serif" font-size="14" font-weight="bold" lengthAdjust="spacing" textLength="298" x="46" y="1226.2852">MinimalCardResourceServiceConfigurator</text><line style="stroke:#3498DB;stroke-width:1.0;" x1="344" x2="366.5" y1="1220.9883" y2="1220.9883"/></g><!--link CardResourceServiceProvider to CardResourceServiceAdapter--><g id="link_CardResourceServiceProvider_CardResourceServiceAdapter"><path codeLine="133" d="M632,277.8702 C632,296.8602 632,322.7002 632,351.4202 " fill="none" id="CardResourceServiceProvider-to-CardResourceServiceAdapter" style="stroke:#3498DB;stroke-width:2.0;stroke-dasharray:7.0,7.0;"/><polygon fill="#3498DB" points="632,356.4302,636,347.4302,632,351.4302,628,347.4302,632,356.4302" style="stroke:#3498DB;stroke-width:2.0;"/><polygon fill="#000000" points="637,322.3857,639.9389,313.3407,634.0611,313.3407,637,322.3857" style="stroke:#000000;stroke-width:1.0;"/><text fill="#000000" font-family="sans-serif" font-size="13" lengthAdjust="spacing" textLength="40" x="646" y="322.7686">provide</text></g><!--reverse link CardResourceServiceAdapter to CardResourceServiceConfiguratorAdapter--><g id="link_CardResourceServiceAdapter_CardResourceServiceConfiguratorAdapter"><path codeLine="135" d="M409.759,833.0692 C394.167,850.0712 378.6,867.0452 363.376,883.6452 " fill="none" id="CardResourceServiceAdapter-backto-CardResourceServiceConfiguratorAdapter" style="stroke:#3498DB;stroke-width:2.0;"/><polygon fill="#3498DB" points="418.941,823.0582,411.9375,824.7761,410.8296,831.9016,417.8331,830.1837,418.941,823.0582" style="stroke:#3498DB;stroke-width:2.0;"/><text fill="#000000" font-family="sans-serif" font-size="13" lengthAdjust="spacing" textLength="7" x="363.3317" y="872.5297">1</text></g><!--reverse link CardResourceServiceAdapter to ReaderManagerAdapter--><g id="link_CardResourceServiceAdapter_ReaderManagerAdapter"><path codeLine="136" d="M909.817,831.8692 C945.809,863.1082 981.725,894.2812 1015.09,923.2392 " fill="none" id="CardResourceServiceAdapter-backto-ReaderManagerAdapter" style="stroke:#3498DB;stroke-width:2.0;"/><polygon fill="#3498DB" points="899.665,823.0582,901.5741,830.012,908.7272,830.9244,906.8182,823.9706,899.665,823.0582" style="stroke:#3498DB;stroke-width:2.0;"/><text fill="#000000" font-family="sans-serif" font-size="13" lengthAdjust="spacing" textLength="24" x="981.3605" y="911.8789">0..N</text></g><!--reverse link CardResourceServiceAdapter to CardProfileManagerAdapter--><g id="link_CardResourceServiceAdapter_CardProfileManagerAdapter"><path codeLine="137" d="M632,836.1112 C632,887.4422 632,938.3312 632,979.2372 " fill="none" id="CardResourceServiceAdapter-backto-CardProfileManagerAdapter" style="stroke:#3498DB;stroke-width:2.0;"/><polygon fill="#3498DB" points="632,823.0582,628,829.0582,632,835.0582,636,829.0582,632,823.0582" style="stroke:#3498DB;stroke-width:2.0;"/><text fill="#000000" font-family="sans-serif" font-size="13" lengthAdjust="spacing" textLength="24" x="606.9688" y="967.884">1..N</text></g><!--link CardResourceServiceConfiguratorAdapter to CardProfileManagerAdapter--><g id="link_CardResourceServiceConfiguratorAdapter_CardProfileManagerAdapter"><path codeLine="139" d="M367.837,1068.2402 C375.146,1068.2402 382.455,1068.2402 389.765,1068.2402 " fill="none" id="CardResourceServiceConfiguratorAdapter-to-CardProfileManagerAdapter" style="stroke:#3498DB;stroke-width:2.0;"/><polygon fill="#3498DB" points="402.921,1068.2402,396.921,1064.2402,390.921,1068.2402,396.921,1072.2402,402.921,1068.2402" style="stroke:#3498DB;stroke-width:2.0;"/><text fill="#000000" font-family="sans-serif" font-size="13" lengthAdjust="spacing" textLength="7" x="375.2762" y="1064.9123">1</text></g><!--link CardProfileManagerAdapter to CardResourceAdapter--><g id="link_CardProfileManagerAdapter_CardResourceAdapter"><path codeLine="140" d="M660.824,1157.3562 C679.624,1204.4732 707.99,1261.0032 747,1301.7402 C756.207,1311.3552 766.49,1320.3102 777.381,1328.6052 " fill="none" id="CardProfileManagerAdapter-to-CardResourceAdapter" style="stroke:#3498DB;stroke-width:2.0;stroke-dasharray:7.0,7.0;"/><polygon fill="#3498DB" points="781.419,1331.6312,776.6136,1323.0343,777.4171,1328.6337,771.8176,1329.4373,781.419,1331.6312" style="stroke:#3498DB;stroke-width:2.0;"/><polygon fill="#000000" points="754.8133,1296.5192,752.1535,1287.3881,747.2944,1290.6954,754.8133,1296.5192" style="stroke:#000000;stroke-width:1.0;"/><text fill="#000000" font-family="sans-serif" font-size="13" lengthAdjust="spacing" textLength="120" x="761" y="1297.7686">create for pool plugin</text></g><!--reverse link CardProfileManagerAdapter to CardResourceAdapter--><g id="link_CardProfileManagerAdapter_CardResourceAdapter"><path codeLine="141" d="M770.462,1165.6262 C811.553,1199.1552 854.062,1239.3422 886,1282.7402 C896.793,1297.4052 905.836,1314.6452 913.194,1331.5292 " fill="none" id="CardProfileManagerAdapter-backto-CardResourceAdapter" style="stroke:#3498DB;stroke-width:2.0;"/><polygon fill="#3498DB" points="760.333,1157.4702,762.4974,1164.3489,769.6793,1164.9966,767.515,1158.118,760.333,1157.4702" style="stroke:#3498DB;stroke-width:2.0;"/><text fill="#000000" font-family="sans-serif" font-size="13" lengthAdjust="spacing" textLength="24" x="885.6859" y="1320.4808">0..N</text></g><!--link ReaderManagerAdapter to CardResourceAdapter--><g id="link_ReaderManagerAdapter_CardResourceAdapter"><path codeLine="143" d="M1058.78,1213.4812 C1041.11,1236.1912 1023.63,1259.7652 1008,1282.7402 C998.55,1296.6322 989.18,1311.8882 980.519,1326.8052 " fill="none" id="ReaderManagerAdapter-to-CardResourceAdapter" style="stroke:#3498DB;stroke-width:2.0;stroke-dasharray:7.0,7.0;"/><polygon fill="#3498DB" points="977.854,1331.4212,985.8182,1325.6271,980.3541,1327.0911,978.89,1321.627,977.854,1331.4212" style="stroke:#3498DB;stroke-width:2.0;"/><polygon fill="#000000" points="1010.1587,1296.5,1017.7169,1290.7273,1012.8803,1287.3872,1010.1587,1296.5" style="stroke:#000000;stroke-width:1.0;"/><text fill="#000000" font-family="sans-serif" font-size="13" lengthAdjust="spacing" textLength="135" x="1022" y="1297.7686">create for regular plugin</text></g><!--reverse link ReaderManagerAdapter to CardResourceAdapter--><g id="link_ReaderManagerAdapter_CardResourceAdapter"><path codeLine="144" d="M1190.41,1226.5992 C1186,1253.3922 1177.34,1279.6572 1162,1301.7402 C1154.41,1312.6762 1145.37,1322.5032 1135.34,1331.3292 " fill="none" id="ReaderManagerAdapter-backto-CardResourceAdapter" style="stroke:#3498DB;stroke-width:2.0;"/><polygon fill="#3498DB" points="1192.25,1213.4192,1187.4599,1218.8095,1190.5932,1225.3043,1195.3833,1219.914,1192.25,1213.4192" style="stroke:#3498DB;stroke-width:2.0;"/><text fill="#000000" font-family="sans-serif" font-size="13" lengthAdjust="spacing" textLength="24" x="1128.426" y="1320.5272">0..N</text></g><!--SRC=[fLXjJziw5FwUN-7BFWmw6g0jwq1TfJOlksWRGolxW3G9fQbRV4djo4dAhH3yzdlYl3cfauRTVgYIu-SynpvljXEIqCCQWjzNlFKzZBfeid3y4FC0iILw5C9kWFc6kBZBSS0Y3W__E1kdwv4vmFlwgNwA3dkdlNxtz6EtDppIC5sWK11hxz7dp-ZsR-kx1G_mQh38mn6Gao28S80M65sYXp3qWykJauTmxRdCOznb2npeBbkVBFb9wCmzx4JT1UwwYRP218y1MT6kxpdXYVRN0Yy9nSYu__BJkZj3zYVxmhweY7l8xjbzUr0Hzv5rRWsjAdg0pA4vDSsA-1mP4yCsUnNnHpGrZRunbCJVhgw_elxWufCvbQI_PXRg3IVMnzFOLzqkceLR3_mIFZWXMZ3wFaHFZ3-Y9n8-88gVq0OYGnYDWmDhfM6qza1D2nu9zHtkh540iSCitFfuCcLyWRaHUnIzcroOXcahWLSbu7Gm6LhdIg1HPZJDisbF2RHAG6jwqGVJOdtMjHdFLz8oF2S84lpj0t4VAGu29DDEE6TFyX0mtM7FOqyxB8xxkE8ieelKictPbc6fZQKGSp0nJasW_8aNU_X68uuNup7GcfPf6GsqET8Q3Y0Fj0S2YPu92pU1rPk8GuNjDUmBcB0zi0nxs6Yx07-o1eE9cPdFvQKPpBrel_qO9DOpjS_jQQFr39hcUcexbPOiV-4OqxscLp5AsBwmXvRTQ3l7fZML6i_4LUlRDiQtmlO4yiZQPrj0UqRVEfTDRykMavve_BY-jQvlHLVqy4gqJEQBJdn_BnW3bCZlxz6ba7TWnFeNYAZZ8J-QUyH5avihnF4IoAcBWmBQGQCvhELoA-fatEd4dPpvqC4Tc77IlnsVT3gZanWtBclvX3wcEbBtpvf-ZPAxTMYX1CrxpQX29rvfiZ1Dyq7Yh30wO7obOzSZVe3rX02wFyTwQbhFDfu3v0GeUq7FcfZ11pUE1JheTA2fEXvCo73uucUAcYKKDvnj829SC3ICIzdoBDZZdwxhulb5_B-czaOZ1Szu_9kEHf8RRxneHUYFURmKp6S-IHqX0zCe9NHnWDJmnWMcstRT-j9XQL7GXRF7r-SWT4BYlZHfhd1uHG47YOOEZnIwiv0JkefnCiiLNJ9qA4kGAxqSQGLJilRl3eMSu9BPaXmTrlWiTHHAKboQu8QH1KXN92x26yQyqcJgftOiLqEibuGoi-Fdagejbz4bMKMyGfxwqqX7dP3bYtGbsP4K8QWk1GCaW1Iy3tjiY818xrBiFdmdbAmThmL3XgmX4kk6HE0XKeYPNvAMF5v95tIOff4S2IZE9V7mjRF6hMcgi-0OZem1RXdxNUqrsxnTMKHmfmDKuYSCC9h0h0scOPRZKWCHyZpr2f4oMoejH6qlWPNixTHKoIelH4Txss5zlwfhLBiTwhNixrPrVoplHicT9bqAx9mqFZfNbfE9ZyixvcmDkHmRoU119cYepugZzqmuxsobP6qx_Lmx7r7Gr2q6b7DPfbQEPX4xLLSMmLEsQ_N-eeI-BQ1IBPJBu3Wt4_z-frwH6nMKG4fMaHuZ0iaV1J2hMxB6B88svtaaa3UbFmdYQ-sK0Pu8Il0P3il5KsrdGGa-Xvq7EnJkq1Ct91lHx2fRa1CFE65vfowLqze9tOUOsDXjj4LAuUn9OTvZxcFZzlbcPZ7rY2R4kplucrjmNKh7Qkc457bTErgJtBNuGsb4p2vzhcPioqF2ocDpUGSMlll_JYgKipq1J53iXXXQWx9mkIpS9OdjmKaHyxSpjDdIMnp2PUybv-ns1vq4Eu5ITuLxuIW2DRJQpaBi9sE_f5vHI9EIhhv_PvG0AHncf16edIR-ufXPo0ey60Qsc_W2Yi6DabgIM3i21RIKFvcuyMQXoCMwMuOgRUkBfeNouVxJiAnMte2pQrkktIuBr2GlsajyTPy40NE9S5wWQKqNILqVDrsdtgMV12-HdsYWiP8lmtTW1GTd1sszdjBlPJpLzUi3zLRUbk9CKDHtpOn7guTqkXvUXd-yG3LfDG2xddUX3y4UkOGhJdoRImyK48YccUPEQ-3MDAL7tpGZkB56diEBIIafsyv7V7JwDhdxyIlvvfG8PhTttv8lyzcdcFpZohliA_apv7tIRBCnlI4ZiYzzJIflmJPaG9swqazDjjIHpZN-0m00]--></g></svg>